/* XPM */
static char *result[] = {
/* columns rows colors chars-per-pixel */
"100 100 90 1 ",
"  c black",
". c #000001",
"X c #010101",
"o c #38393C",
"O c #383A3C",
"+ c #393A3C",
"@ c #3D3F43",
"# c #3E4044",
"$ c #3F4145",
"% c #414144",
"& c #424244",
"* c #424245",
"= c #45464A",
"- c #46474B",
"; c #41474D",
": c #46474C",
"> c #47474C",
", c #44484D",
"< c #46484C",
"1 c #47484C",
"2 c #44494E",
"3 c #4B4A4D",
"4 c #4B4B4E",
"5 c #464F56",
"6 c #474F56",
"7 c #4A4C51",
"8 c #4A4C52",
"9 c #4E4F53",
"0 c #4F4F53",
"q c #504F54",
"w c #51555C",
"e c #535A62",
"r c #535A63",
"t c #565E68",
"y c #496FC3",
"u c #6C83B0",
"i c #6D85B5",
"p c #6E85B5",
"a c #6F86B6",
"s c #6F87B6",
"d c #7389B4",
"f c #7088B7",
"g c #7188B7",
"h c #7489B5",
"j c #7089B8",
"k c #768CB9",
"l c #768DBA",
"z c #778EBB",
"x c #788DBA",
"c c #788EBA",
"v c #7A91BE",
"b c #6DB7E2",
"n c #6EBCE9",
"m c #6FBDEA",
"M c #6FBEEB",
"N c #7AC1EA",
"B c #72C2F1",
"V c #73C2F1",
"C c #71C3F2",
"Z c #77C5F2",
"A c #79C4F1",
"S c #7AC4F1",
"D c #9EAECD",
"F c #9FAECE",
"G c #9CBCD4",
"H c #9FBFDA",
"J c #9FC0D9",
"K c #9FC0DA",
"L c #9FC1DA",
"P c #A0C0D9",
"I c #A0C1DA",
"U c #A1C1DA",
"Y c #A0C1DB",
"T c #A1C1DB",
"R c #A1C2DB",
"E c #80C6F1",
"W c #E6E0E1",
"Q c #E7E1E1",
"! c #EDE8E8",
"~ c #EFE8E9",
"^ c #EFE9E9",
"/ c #F4EEF0",
"( c #F6F0F0",
") c #F7F0F0",
"_ c #F8F1F1",
"` c #FEF8F8",
"' c #FFF8F8",
"] c #FFF8F9",
"[ c #FFF9F9",
"{ c None",
/* pixels */
"{{{{{{{{{{{{{{{{{{{{{{{{{{{{{{{{{{{{{{{{{{{{{{{{{{{{{{{{{{{{{{{{{{{{{{{{{{{{{{{{{{{{{{{{{{{{{{{{{{{{",
"{{{{{{{{{{{{{{{{{{{{{{{{{{{{{{{{{{{{{{{{{{{{{{{{{{{{{{{{{{{{{{{{{{{{{{{{{{{{{{{{{{{{{{{{{{{{{{{{{{{{",
"{{{{{{{{{{{{{{{{{{{{{{{{{{{{{{{{{{{{{{{{{{{{{{{{{{{{{{{{{{{{{{{{{{{{{{{{{{{{{{{{{{{{{{{{{{{{{{{{{{{{",
"{{{{{{{{{{{{{{{{{{{{{{{{{{{{{{{{{{{{{{{{{{{{{{{{{{{{{{{{{{{{{{{{{{{{{{{{{{{{{{{{{{{{{{{{{{{{{{{{{{{{",
"{{{{{{{{{{{{{{{{{{{{{{{{{{{{{{{{{{{{{{{{{{{{{{{{{{{{{{{{{{{{{{{{{{{{{{{{{{{{{{{{{{{{{{{{{{{{{{{{{{{{",
"{{{{{{{{{{{{{{{{{{{{{{{{{{{{{{{{{{{{{{{{{{{{{{{{{{{{{{{{{{{{{{{{{{{{{{{{{{{{{{{{{{{{{{{{{{{{{{{{{{{{",
"{{{{{{{{{{{{{{{{{{{{{{{{{{{{{{{{{{{{{{{{{{{{{{{{{{{{{{{{{{{{{{{{{{{{{{{{{{{{{{{{{{{{{{{{{{{{{{{{{{{{",
"{{{{{{{{{{{{{{{{{{{{{{{{{{{{{{{{{{{{{{{{{{{{{{{{{{{{{{{{{{{{{{{{{{{{{{{{{{{{{{{{{{{{{{{{{{{{{{{{{{{{",
"{{{{{{{{{{{{{{{{{{{{{{{{{{{{{{{{{{{{{{{{{{{{{{{{{{{{{{{{{{{{{{{{{{{{{{{{{{{{{{{{{{{{{{{{{{{{{{{{{{{{",
"{{{{{{{{{{{{{{{{{{{{{{{{{{{{{{{{{{{{{{{{{{{{{{{{{{{{{{{{{{{{{{{{{{{{{{{{{{{{{{{{{{{{{{{{{{{{{{{{{{{{",
"{{{{{{{{{{{{{{{{{{{{{{{{{{{{{{{{{{{{{{{{{{{{{{{{{{{{{{{{{{{{{{{{{{{{{{{{{{{{{{{{{{{{{{{{{{{{{{{{{{{{",
"{{{{{{{{{{{{{{{{{{{{{{{{{{{{{{{{{{{{{{{{{{{{{{{{{{{{{{{{{{{{{{{{{{{{{{{{{{{{{{{{{{{{{{{{{{{{{{{{{{{{",
"{{{{{{{{{{{{{{{{{{{{{{{{{{{{{{{{{{{{{{{{{{{{{{{{{{{{{{{{{{{{{{{{{{{{{{{{{{{{{{{{{{{{{{{{{{{{{{{{{{{{",
"{{{{{{{{{{{{{{{{{{{{{{{{{{{{{{{{{{{{{{{{{{{{{{{{{{{{{{{{{{{{{{{{{{{{{{{{{{{{{{{{{{{{{{{{{{{{{{{{{{{{",
"{{{{{{{{{{{{{{{{{{{{{{{{{{{{{{{{{{{{{{{{{{{{{{{{{{{{{{{{{{{{{{{{{{{{{{{{{{{{{{{{{{{{{{{{{{{{{{{{{{{{",
"{{{{{{{{{{{{{{{{{{{{{{{{{{{{{{{{{{{{{{{{{{{{{{{{{{{{{{{{{{{{{{{{{{{{{{{{{{{{{{{{{{{{{{{{{{{{{{{{{{{{",
"{{{{{{{{{{{{{{{{{{{{{{{{{{{{{{{{{{{{{{{{{{jkzkkkkkkkzzkkkkkkzzzzkzzzzzzzzzzzzzzx{{{{{{{{{{{{{{{{{{{{",
"{{{{{{{{{{{{{{{{{{{{{{{{{{{{{{{{{{{{{{{{{sjzzzxxzkzzzzzzzzkkzzzzkzzzzzzzzzzzzzzx{{{{{{{{{{{{{{{{{{{{",
"{{{{{{{{{{{{{{{{{{{{{{{{{{{{{{{{{{{{{{{{ssRRRRYYRRRRRRRRRRRRRRRRRRRRRRRRRRRRRRzk{{{{{{{{{{{{{{{{{{{{",
"{{{{{{{{{{{{{{{{{{{{{{{{{{{{{{{{{{{{{{{jjRYYRRRRRRRRRRRRRRRRRRRRRRRRRRRRRRRRRHkx{{{{{{{{{{{{{{{{{{{{",
"{{{{{{{{{{{{{{{{{{{{{{{{{{{{{{{{{{{{{{sjRRTTTRRRRRRRRRRRRRRRRRRRRRRRRRRRRRRRzkxx{{{{{{{{{{{{{{{{{{{{",
"{{{{{{{{{{{{{{{{{{{{{{{{{{{{{{{{{{{{{sjYYTTTTRRRRRRRRRRRRRRRRRRRRRRRRRRRYYYxkPkz{{{{{{{{{{{{{{{{{{{{",
"{{{{{{{{{{{{{{{{{{{{{{{{{{{{{{{{{{{{ssRYTTTTRRRR@@@@@@@@@@RRRRRRRRRRRRRRYYxxJJkz{{{{{{{{{{{{{{{{{{{{",
"{{{{{{{{{{{{{{{{{{{{{{{{{{{{{{{{{{{jjRYTTTTRRR@@@@yBBBrr@@@RRRRRRRRRRRRYYxkIIJkz{{{{{{{{{{{{{{{{{{{{",
"{{{{{{{{{{{{{{{{{{{{{{{{{{{{{{{{{{sjRRTTTTTRR@@@y;;yBBCw@@@@GRRRRRRRRRRYxkJIJIkz{{{{{{{{{{{{{{{{{{{{",
"{{{{{{{{{{{{{{{{{{{{{{{{{{{{{{{{{jjYYTTRRRRI@@BBy;;yBCCe@@@O@$@@@RRRYYYxkIIIJIkz{{{{{{{{{{{{{{{{{{{{",
"{{{{{{{{{{{{{{{{{{{{{{{{{{{{{{{{sjRYTTYRRRR@@rBBCyyCCn@@()_@@t@RRRRRYYxxIJIIJIkz{{{{{{{{{{{{{{{{{{{{",
"{{{{{{{{{{{{{{{{{{{{{{{{{{{{{{{ssRTTTYYRRR##rrBCCCCnn@@((((@O@@RRRRRYxxJIJIIIIkz{{{{{{{{{{{{{{{{{{{{",
"{{{{{{{{{{{{{{{{{{{{{{{{{{{{{{sjRTTTYYRRG##@@@rnnn@@@(__((@OO@RRRRYYzzIIJIIIJIkz{{{{{{{{{{{{{{{{{{{{",
"{{{{{{{{{{{{{{{{{{{{{{{{{{{{{ssRRTTYYYR@##/(@@@@@@()(__((@@@RRRRRRYxcJJJIIIIJJkz{{{{{{{{{{{{{{{{{{{{",
"{{{{{{{{{{{{{{{{{{{{{{{{{{{{sjRYTTYR@@@@@@()((__(()))_((@@@RRRRRYYzzIIIIJooIJJkz{{{{{{{{{{{{{{{{{{{{",
"{{{{{{{{{{{{{{{{{{{{{{{{{{{ssTTTTTYR@@@t@(__))__)))()_(@@@RRRRRRYxzJLLJooooIJRkz{{{{{{{{{{{{{{{{{{{{",
"{{{{{{{{{{{{{{{{{{{{{{{{{{sjRRTTTRRRRR@@OO(_))__))__(@@@RRRRRRRRzzLLLLo))oIIRRkz{{{{{{{{{{{{{{{{{{{{",
"{{{{{{{{{{{{{{{{{{{{{{{{{ssRRRTTTTTTRRRROO@)(__((_((@@@RRRRRRRRzzJLLooo_^oIIRRkz{{{{{{{{{{{{{{{{{{{{",
"{{{{{{{{{{{{{{{{{{{{{{{{jjRYYYYRTTTTRRRRR@@@@@o@@@@@@RRRRYYRRRzzJRRooVo^^oIIRRkz{{{{{{{{{{{{{{{{{{{{",
"{{{{{{{{{{{{{{{{{{{{{{{sjRRYYYYRTTTRRRRRRRRR@@@@@@@RRRRRRYYRRzzJJRRoAVo^^oIIRRkz{{{{{{{{{{{{{{{{{{{{",
"{{{{{{{{{{{{{{{{{{{{{{jjRRRYYRTTTTTTTRRRRRRRRRRRRRRRRRRYYRRRzkJJIRRoA4o^^oIIRRkz{{{{{{{{{{{{{{{{{{{{",
"{{{{{{{{{{{{{{{{{{{{{sjRRRRYYRTTTTTTRRRRRRRRRRRRRRRRRRRYYRRzzIJJIIooooQ_ooIJRRkz{{{{{{{{{{{{{{{{{{{{",
"{{{{{{{{{{{{{{{{{{{{ssRRRRRYYRRRTTTRRRRRRRRRRRRRRRRRRRRYYRzvJJJJJIo^_)()oJJIRIkz{{{{{{{{{{{{{{{{{{{{",
"{{{{{{{{{{{{{{{{{{{{pipappaaaapppaaaaaapppppppffffffffffpppILLJJJIo__()ooJJJRIkz{{{{{{{{{{{{{{{{{{{{",
"{{{{{{{{{{{{{{{{{{{{aapapppppppppaaaapppppppppffffffffffiaaJLLIJJIo^))ooJJJJRRdz{{{{{{{{{{{{{{{{{{{{",
"{{{{{{{{{{{{{{{{{{{{apIIIIIIIILLILIIILLLLLLLLLIIIIIIIIJLIajJLLJIJIo)(ooJIJIIRRhz{{{{{{{{{{{{{{{{{{{{",
"{{{{{{{{{{{{{{{{{{{{aaIILLLLLLLLLLLLLLLLLLLLLLIIIJJLLLLLLajJLLJIJJooooJJRRITRRkz{{{{{{{{{{{{{{{{{{{{",
"{{{{{{{{{{{{{{{{{{{{aaIJJLLLLLLLLLLLLLLIILLIJLLJJILLIIILIajJLLJIJJooIIJJRIIRRRkz{{{{{{{{{{{{{{{{{{{{",
"{{{{{{{{{{{{{{{{{{{{aaILIJLIJJJIIIJLLLLLLLLLLLLLLLIIIIILIjjJLLJIIJRRJJJIoo%-RRlz{{{{{{{{{{{{{{{{{{{{",
"{{{{{{{{{{{{{{{{{{{{aaILIJIooooOoo1-ILLLLLLJJJJLILLLIIILIjjJLLJJJJJJJIooo^W-RIlz{{{{{{{{{{{{{{{{{{{{",
"{{{{{{{{{{{{{{{{{{{{aaLLIIoooNNNooo%ooJLLLLLLLLLLLLLLIILIjjJLLIJIIJIoooo)^W>TRlz{{{{{{{{{{{{{{{{{{{{",
"{{{{{{{{{{{{{{{{{{{{apLLIoooZ56Zo())oJJJIILLLLLLLLLIIIILIjaJLLJRRRRooSSo^^98TRkz{{{{{{{{{{{{{{{{{{{{",
"{{{{{{{{{{{{{{{{{{{{aaLLoo))oZZo))ooFJLLLLLLLLLLLLLJIIILIaaJJRRRRRooEEoo^~>TTRkz{{{{{{{{{{{{{{{{{{{{",
"{{{{{{{{{{{{{{{{{{{{aaLIo)(()ooo)ooJJJIJJIIIILLLLLLLJIILIaaIRRTTRo^&oo)^^:RTTRkz{{{{{{{{{{{{{{{{{{{{",
"{{{{{{{{{{{{{{{{{{{{paIoo)))))))ooJJJIIIJIIIILLLLLLLJLLLLjaIRRRR7~_))))^3RTTTRkz{{{{{{{{{{{{{{{{{{{{",
"{{{{{{{{{{{{{{{{{{{{paIIooo)))oooJJIIIIIIIIIIIILIILJJLLLLjuIRRRR7^_))(!3TRRRTTlk{{{{{{{{{{{{{{{{{{{{",
"{{{{{{{{{{{{{{{{{{{{paIILJoooooJJJIIIIIJIIJJJJJJJLLJLLILLjjRRRRR=^^^-=oRTRRRTTkz{{{{{{{{{{{{{{{{{{{{",
"{{{{{{{{{{{{{{{{{{{{ggIILLIIooJJJIIIIIIJIIIIIIIIIIJJLLIIIjjRRRRooooooRRRTTRRTRkz{{{{{{{{{{{{{{{{{{{{",
"{{{{{{{{{{{{{{{{{{{{ggIILLILIIIIIIIIILIoooooooooo>IILLLLIjjRRRRRRRIITRRRTTRRTRlz{{{{{{{{{{{{{{{{{{{{",
"{{{{{{{{{{{{{{{{{{{{aaIIILLLIIILLLIJIooo^^^^^^^ooIJLLLILIjjRRIRTRRTTRRRRTTRRTRlz{{{{{{{{{{{{{{{{{{{{",
"{{{{{{{{{{{{{{{{{{{{agILIIJLIILLLLLIoo^)__)))__ooIJILLLLIjaRRTTRTTTRTRRRTTRRTRkz{{{{{{{{{{{{{{{{{{{{",
"{{{{{{{{{{{{{{{{{{{{gaILLLLLLLLLLJIo^^oooo)))_^oILLLJLLLLaaRRTTTTRRoTRRRTRRRTRlk{{{{{{{{{{{{{{{{{{{{",
"{{{{{{{{{{{{{{{{{{{{gaILLLLLLILIIIoo^oZZZo)))^ooILLLJLLLIaaRRTT1q*3oIRRRTRRRRRzx{{{{{{{{{{{{{{{{{{{{",
"{{{{{{{{{{{{{{{{{{{{gaILLJJLLIIIIoo)oZ,2Zo)()ooIILILLLLLLaaRRT0mm3^oTRRRRRRRTTzx{{{{{{{{{{{{{{{{{{{{",
"{{{{{{{{{{{{{{{{{{{{gaLLLJLLIIILIo)(oZCZoo_)ooLLLJJLLLLLLjjRT-bCm3^oIRRRRRRRRRzk{{{{{{{{{{{{{{{{{{{{",
"{{{{{{{{{{{{{{{{{{{{gaJJLILLLLLIoo)(ooooo)^ooILLLJJLLLLLLjjTTomM&o^oIRRRRRRRRzz{{{{{{{{{{{{{{{{{{{{{",
"{{{{{{{{{{{{{{{{{{{{gaJILILLJIIoo)(()))))oooIIJLLIJJLJLLIaaR-%<<]`'oIRRRRRRRzk{{{{{{{{{{{{{{{{{{{{{{",
"{{{{{{{{{{{{{{{{{{{{gaIJJILLJIooo)(())(oooIIJIIILJJJJILLLaaR-`[[]'[oIRRTRRRzz{{{{{{{{{{{{{{{{{{{{{{{",
"{{{{{{{{{{{{{{{{{{{{gaIJJILLJIIIooooooooIIIJIIIILLIJJIILLaaR-`[[[[ooRRTRRRzz.{{{{{{{{{{{{{{{{{{{{{{{",
"{{{{{{{{{{{{{{{{{{{{gaIJJILLIJILIIIIIIIILLJIIIIILLLLJLILLaaRo`['[&%URRTRRzz   {{{{{{{{{{{{{{{{{{{{{{",
"{{{{{{{{{{{{{{{{{{{{aaJJJILLIJILIIIIIIIJJLLIIJJJLLJJLLILLaaRo`'[&oURRRRRzz.   {{{{{{{{{{{{{{{{{{{{{{",
"{{{{{{{{{{{{{{{{{{{{gaJJJILLIJJIJJJJJJIIIILLIJJILLIIILLLLjaRoo)&&RRRRRRzk    {{{{{{{{{{{{{{{{{{{{{{{",
"{{{{{{{{{{{{{{{{{{{{gaIJJJLLIILLIIIIJIIIIIILLLLLLLLLLLLLLjaRRoo%TRRTRTzz     {{{{{{{{{{{{{{{{{{{{{{{",
"{{{{{{{{{{{{{{{{{{{{gaIJJJLLIIILLIIJIJIIIJJJIIIIIJJJJLLLIjaRRDoITRTRRzz     {{{{{{{{{{{{{{{{{{{{{{{{",
"{{{{{{{{{{{{{{{{{{{{gaIJIIIIILILLLIJIJJIJIIooooooooooILLIjaRRTTTRRTTzz.    {{{{{{{{{{{{{{{{{{{{{{{{{",
"{{{{{{{{{{{{{{{{{{{{gaIJIIIIILILLLIJJJJIIoooo_ooo__o+ILLIjaRRTTRRRTzk{     {{{{{{{{{{{{{{{{{{{{{{{{{",
"{{{{{{{{{{{{{{{{{{{{gaIJIIIILLILLLIJIIIIooo___oCo_)oLLLLJjaRRRRTTRzz{     {{{{{{{{{{{{{{{{{{{{{{{{{{",
"{{{{{{{{{{{{{{{{{{{{aaIIIJILLLILLLIJJIJIoo____ooo)ooLLLLIjaRRRRRRzz{     {{{{{{{{{{{{{{{{{{{{{{{{{{{",
"{{{{{{{{{{{{{{{{{{{{aaIIIJILLLILLIIIJJIIo_______)ooIJJLLIjaRRRRTzz{     {{{{{{{{{{{{{{{{{{{{{{{{{{{{",
"{{{{{{{{{{{{{{{{{{{{aaIIIIJLLLILIIJJIJIoo______)ooJIILLLIaaRRRRzk{      {{{{{{{{{{{{{{{{{{{{{{{{{{{{",
"{{{{{{{{{{{{{{{{{{{{aaIIIIILLLIJJLLLJJIoo_____)ooJLJILLLIaaRRRzk       {{{{{{{{{{{{{{{{{{{{{{{{{{{{{",
"{{{{{{{{{{{{{{{{{{{{aaIIIIIILLJIILJLIIooooo__ooJJJJKJIILLaaRRzz.      {{{{{{{{{{{{{{{{{{{{{{{{{{{{{{",
"{{{{{{{{{{{{{{{{{{{{aaIIIIILLLIIIIIIIIIILJJooJJLLLLLLILLIaaRzk       {{{{{{{{{{{{{{{{{{{{{{{{{{{{{{{",
"{{{{{{{{{{{{{{{{{{{{aaIIIIIILIILIIIIIIIIIIIIIILLLILLIIIIIaazz       {{{{{{{{{{{{{{{{{{{{{{{{{{{{{{{{",
"{{{{{{{{{{{{{{{{{{{{aajjjjjjjaajjjjjjjjaajaaaaaaajjjjjjggaak        {{{{{{{{{{{{{{{{{{{{{{{{{{{{{{{{",
"{{{{{{{{{{{{{{{{{{{{ajjjjjjjjaajjjjajjjjjjjjjaaaajjjjjjggjj        {{{{{{{{{{{{{{{{{{{{{{{{{{{{{{{{{",
"{{{{{{{{{{{{{{{{{{{{{{{{{                 ......       XX        {{{{{{{{{{{{{{{{{{{{{{{{{{{{{{{{{{{",
"{{{{{{{{{{{{{{{{{{{{{{{{{                 ....                  {{{{{{{{{{{{{{{{{{{{{{{{{{{{{{{{{{{{",
"{{{{{{{{{{{{{{{{{{{{{{{{{{{                                   {{{{{{{{{{{{{{{{{{{{{{{{{{{{{{{{{{{{{{",
"{{{{{{{{{{{{{{{{{{{{{{{{{{{{{{{{{{                         {{{{{{{{{{{{{{{{{{{{{{{{{{{{{{{{{{{{{{{{{",
"{{{{{{{{{{{{{{{{{{{{{{{{{{{{{{{{{{{{{{{{{{{{{{         {{{{{{{{{{{{{{{{{{{{{{{{{{{{{{{{{{{{{{{{{{{{{",
"{{{{{{{{{{{{{{{{{{{{{{{{{{{{{{{{{{{{{{{{{{{{{{{{{{{{{{{{{{{{{{{{{{{{{{{{{{{{{{{{{{{{{{{{{{{{{{{{{{{{",
"{{{{{{{{{{{{{{{{{{{{{{{{{{{{{{{{{{{{{{{{{{{{{{{{{{{{{{{{{{{{{{{{{{{{{{{{{{{{{{{{{{{{{{{{{{{{{{{{{{{{",
"{{{{{{{{{{{{{{{{{{{{{{{{{{{{{{{{{{{{{{{{{{{{{{{{{{{{{{{{{{{{{{{{{{{{{{{{{{{{{{{{{{{{{{{{{{{{{{{{{{{{",
"{{{{{{{{{{{{{{{{{{{{{{{{{{{{{{{{{{{{{{{{{{{{{{{{{{{{{{{{{{{{{{{{{{{{{{{{{{{{{{{{{{{{{{{{{{{{{{{{{{{{",
"{{{{{{{{{{{{{{{{{{{{{{{{{{{{{{{{{{{{{{{{{{{{{{{{{{{{{{{{{{{{{{{{{{{{{{{{{{{{{{{{{{{{{{{{{{{{{{{{{{{{",
"{{{{{{{{{{{{{{{{{{{{{{{{{{{{{{{{{{{{{{{{{{{{{{{{{{{{{{{{{{{{{{{{{{{{{{{{{{{{{{{{{{{{{{{{{{{{{{{{{{{{",
"{{{{{{{{{{{{{{{{{{{{{{{{{{{{{{{{{{{{{{{{{{{{{{{{{{{{{{{{{{{{{{{{{{{{{{{{{{{{{{{{{{{{{{{{{{{{{{{{{{{{",
"{{{{{{{{{{{{{{{{{{{{{{{{{{{{{{{{{{{{{{{{{{{{{{{{{{{{{{{{{{{{{{{{{{{{{{{{{{{{{{{{{{{{{{{{{{{{{{{{{{{{",
"{{{{{{{{{{{{{{{{{{{{{{{{{{{{{{{{{{{{{{{{{{{{{{{{{{{{{{{{{{{{{{{{{{{{{{{{{{{{{{{{{{{{{{{{{{{{{{{{{{{{",
"{{{{{{{{{{{{{{{{{{{{{{{{{{{{{{{{{{{{{{{{{{{{{{{{{{{{{{{{{{{{{{{{{{{{{{{{{{{{{{{{{{{{{{{{{{{{{{{{{{{{",
"{{{{{{{{{{{{{{{{{{{{{{{{{{{{{{{{{{{{{{{{{{{{{{{{{{{{{{{{{{{{{{{{{{{{{{{{{{{{{{{{{{{{{{{{{{{{{{{{{{{{",
"{{{{{{{{{{{{{{{{{{{{{{{{{{{{{{{{{{{{{{{{{{{{{{{{{{{{{{{{{{{{{{{{{{{{{{{{{{{{{{{{{{{{{{{{{{{{{{{{{{{{",
"{{{{{{{{{{{{{{{{{{{{{{{{{{{{{{{{{{{{{{{{{{{{{{{{{{{{{{{{{{{{{{{{{{{{{{{{{{{{{{{{{{{{{{{{{{{{{{{{{{{{"
};
