/* XPM */
static char *result[] = {
/* columns rows colors chars-per-pixel */
"100 100 92 1 ",
"  c #000000",
". c #0A0A0D",
"X c #0C0C11",
"o c #1A1413",
"O c #281F1C",
"+ c #2B211E",
"@ c #161422",
"# c #181529",
"$ c #1F1E35",
"% c #3E0E26",
"& c #211F3F",
"* c #4D121B",
"= c #421B1A",
"- c #54161F",
"; c #54181F",
": c #4F1A21",
"> c #551A22",
", c #442726",
"< c #43352F",
"1 c #4B362F",
"2 c #443631",
"3 c #453832",
"4 c #493A33",
"5 c #4D3F3A",
"6 c #503931",
"7 c #4D4038",
"8 c #53443C",
"9 c #58433A",
"0 c #262447",
"q c #26234E",
"w c #28264F",
"e c #272450",
"r c #2A2752",
"t c #2B2854",
"y c #322E61",
"u c #37336C",
"i c #5C4C43",
"p c #635248",
"a c #C54335",
"s c #CD4A3A",
"d c #D84A36",
"f c #D24B3D",
"g c #DB4B3A",
"h c #E44C38",
"j c #E2503B",
"k c #A64143",
"l c #A35658",
"z c #97634A",
"x c #966759",
"c c #B26F59",
"v c #B5735B",
"b c #B8755D",
"n c #A77363",
"m c #A97566",
"M c #AF7967",
"N c #B17967",
"B c #BB7A61",
"V c #B47E6C",
"C c #C5656C",
"Z c #C9676E",
"A c #C5686C",
"S c #C9686F",
"D c #CB6A70",
"F c #CD7074",
"G c #DB7E7B",
"H c #C48D6B",
"J c #C7906C",
"K c #DD807D",
"L c #DF8582",
"P c #DC918C",
"I c #E48686",
"U c #E1948F",
"Y c #EE908F",
"T c #E79B95",
"R c #E89B95",
"E c #D0A186",
"W c #E5B895",
"Q c #E9BD99",
"! c #E0C5AB",
"~ c #E8C7AA",
"^ c #EDCCAE",
"/ c #ECCEB3",
"( c #F0CEB0",
") c #EDD0B5",
"_ c #F3D2B3",
"` c #FBD7B6",
"' c #FEDCBB",
"] c #EFE7E1",
"[ c #F6EEE7",
"{ c #F7EFE9",
"} c #F7F1ED",
"| c None",
/* pixels */
"||||||||||||||||||||||||||||||||||||||||||||||||||||||||||||||||||||||||||||||||||||||||||||||||||||",
"||||||||||||||||||||||||||||||||||||||||||||||||||||||||||||||||||||||||||||||||||||||||||||||||||||",
"||||||||||||||||||||||||||||||||||||||||||||||||||||||||||||||||||||||||||||||||||||||||||||||||||||",
"||||||||||||||||||||||||||||||||||||||||||||||||||||||||||||||||||||||||||||||||||||||||||||||||||||",
"||||||||||||||||||||||||||||||||||||||||||||||||||||||||||||||||||||||||||||||||||||||||||||||||||||",
"||||||||||||||||||||||||||||||||||||||||||||||||||||||||||||||||||||||||||||||||||||||||||||||||||||",
"||||||||||||||||||||||||||||||||||||||||||||||||||||||||||||||||||||||||||||||||||||||||||||||||||||",
"||||||||||||||||||||||||||||||||||||||||||||||||||||||||||||||||||||||||||||||||||||||||||||||||||||",
"||||||||||||||||||||||||||||||||||||||||||||||||||||||||||||||||||||||||||||||||||||||||||||||||||||",
"||||||||||||||||||||||||||||||||||||||||||||||||||||||||||||||||||||||||||||||||||||||||||||||||||||",
"||||||||||||||||||||||||||||||||||||||||||||||||||||||||||||||||||||||||||||||||||||||||||||||||||||",
"||||||||||||||||||||||||||||||||||||||||||||||||||||||||||||||||||||||||||||||||||||||||||||||||||||",
"||||||||||||||||||||||||||||||||||||||||||||||||||||||||||||||||||||||||||||||||||||||||||||||||||||",
"||||||||||||||||||||||||||||||||||||||||||||||||||||||||||||||||||||||||||||||||||||||||||||||||||||",
"||||||||||||||||||||||||||||||||||||||||||||||||||||||||||||||||||||||||||||||||||||||||||||||||||||",
"||||||||||||||||||||||||||||||||||||||||||||||||||||||||||||||||||||||||||||||||||||||||||||||||||||",
"||||||||||||||||||||||||||||||||||||||||||||||||||||||||||||||||||||||||||||||||||||||||||||||||||||",
"||||||||||||||||||||||||||||||||||||||||||||||||||||||||||||||||||||||||||||||||||||||||||||||||||||",
"||||||||||||||||||||||||||||||||||||||||||||||||||||||||||||||||||||||||||||||||||||||||||||||||||||",
"||||||||||||||||||||||||||||||||||||||||||||||||||||||||||||||||||||||||||||||||||||||||||||||||||||",
"||||||||||||||||||||||||||||||||||||||||||||||||||||||||||||||||||||||||||||||||||||||||||||||||||||",
"||||||||||||||||||||||||||||||||||||||||||||||||||||||||||||||||||||||||||||||||||||||||||||||||||||",
"||||||||||||||||||||||||||||||||||||||||||||||||||||||||||||||||||||||||||||||||||||||||||||||||||||",
"|||||||||||||||||||||||||||||||||||||||||||||||||||DD|||||||||||||||||||||||||||||||||||||||||||||||",
"|||||||||||||||||||||||||||||||||||||||||||||||||||DD|||||||||||||||||||||||||||||||||||||||||||||||",
"||||||||||||||||||||||||||||||||||||||||||SS|||||||||DD|||||||||||||||||||||||||||||||||||||||||||||",
"||||||||||||||||||||||||||||||||||||||||||SD|||||||||DS|||||||||||||||||||||||||||||||||||||||||||||",
"|||||||||||||||||||||||||||||||||||||SDD||||SSSSDDSZZGG||DD||||||||SS|||||||||||||||||||||||||||||||",
"|||||||||||||||||||||||||||||||||||||DDD||||SSSSSDDSZGG||DD||||||||SD|||||||||||||||||||||||||||||||",
"|||||||||||||||||||||||||||||||ZS|||||||DDDDGGGKPPURRIIZDSSSDZZZ|SS|||||||||||||||||||||||||||||||||",
"|||||||||||||||||||||||||||||||ZS|||||||DDDDGGGGPPPRRIIDSSSSDZZZ|SS|||||||||||||||||||||||||||||||||",
"|||||||||||||||||||||||||||||||ZS|||||||DDDDGGGGPPPRRIISDSSSDZZZ|SS|||||||||||||||||||||||||||||||||",
"|||||||||||||||||||||||||||||||||SZDDDDSKKTTTTTTTTTTTKKKKTTYYASSD|||||||||||||||||||||||||||||||||||",
"|||||||||||||||||||||||||||||||||ZZSSDDDKKTTTTTTTTTTTPLKKTTYYFSSD|||||||||||||||||||||||||||||||||||",
"|||||||||||||||||||||||||||||ZZ||||DDKGGTTTTTTTTTTTTTTTTTTTTRRRRDDD||||DD|||||||||||||||||||||||||||",
"|||||||||||||||||||||||||||||SZ||||DDGGGTTTTTTTTTTTTRTTTTTTTRRRRDDD||||DD|||||||||||||||||||||||||||",
"|||||||||||||||||||||||||||||||DDDDTRRRRTTTTTTTTTTRTTRRTTTTTRRRRGGGDDDD|||||||||||||||||||||||||||||",
"|||||||||||||||||||||||||||||||DDDSRRRRRTTTTTTTTTTRRTTTTTTTTTRRTGGGDDDD|||||||||||||||||||||||||||||",
"|||||||||||||||||||||||||||||||||DSRTTRRTTTTTTTTTRRRTTRTTTTTTRTTRGGDD|||||||||||||||||||||||||||||||",
"|||||||||||||||||||||||||||||||||DSTTTRTTTTTTTTTTTRRTTTTTTTTTTTTRGGDD|||||||||||||||||||||||||||||||",
"|||||||||||||||||||||||||||||||DDSDTTTTTTTTTTTTTTTTTTTTGGDTTTTTTTTTZZDD|||||||||||||||||||||||||||||",
"|||||||||||||||||||||||||||||||DDDDTTTTTTTTTTTTTTTLTTTUGGFTTTTTTTTTZZZD|||||||||||||||||||||||||||||",
"|||||||||||||||||||||||||||||ZZZSGGTTTTTTTTTTTTTTTTDDTTGDFFTTTTTTTTDDZDDD|||||||||||||||||||||||||||",
"|||||||||||||||||||||||||||||ZZZZGGTTTTTTTTTUTTTTTTDFTTGFFFTTTTTTTTDDDZDD|||||||||||||||||||||||||||",
"|||||||||||||||||||||||||||||ZZZZGKTTRTTTTTTTTTTTTTDFUTFFFFTTFRTTTTSDDDDD|||||||||||||||||||||||||||",
"|||||||||||||||||||||||||||||||DDRRRTTTTTTUTTUTTCSSSFPDDWSFUFFTTTTTZZ|||||||||||||||||||||||||||||||",
"|||||||||||||||||||||||||||||||DDRTRTTTTTFATTTTTSSSSFFFQWFFFFFTFFRTZZ|||||||||||||||||||||||||||||||",
"|||||||||||||||||||||||||||||||DDRRRTTTTADFTTTAASSSSFFFQWQFFFFTFFTTSDZZ|||||||||||||||||||||||||||||",
"|||||||||||||||||||||||||||||||DSTTTTTRRSSDRRRSSSSCSFFQQQQFDFDTTFFTDDSS|||||||||||||||||||||||||||||",
"|||||||||||||||||||||||||||||DDDSSCTTTRSSDDRDDSSSS:SFQQ')QQDFFAFFFAAA|||||||||||||||||||||||||||||||",
"|||||||||||||||||||||||||||||DDDSSSTTTSSSDDDADSSCCSDQQ''__)QWFFFFlSFD|||||||||||||||||||||||||||||||",
"|||||||||||||||||||||||||||||||||CUTSSSSDDTSSSAA*:DWQQ''''___)QWQW:|||||||||||||||||||||||||||||||||",
"|||||||||||||||||||||||||||||||ASSRDSSD>DSSSSS;**>QQQ''_'''_____QQ7|||||||||||||||||||||||||||||||||",
"|||||||||||||||||||||||||||||||SSSDD-*>SFCSJJB>;*>Q''''_QQQQQ_)(QQ7|||||||||||||||||||||||||||||||||",
"||||||||||||||||||||||||||||||||||%%**-CbbbQQWB>*/('''QQ`3<2<<'__W7|||||||||||||||||||||||||||||||||",
"||||||||||||||||||||||||||||||||||%%****cbQQQQQQ>(''''''_77777'''Q7|||||||||||||||||||||||||||||||||",
"|||||||||||||||||||||||||||||||||||%:***cbQQ'`QQ^'''''''`}[}47'''^8|||||||||||||||||||||||||||||||||",
"|||||||||||||||||||||||||||||||||||%>***cbQQ''`'''''''''_[}}74'''^7|||||||||||||||||||||||||||||||||",
"||||||||||||||||||||||||||||||||||||%***cbQQ'''''''''''ip}}}zz'''(7|||||||||||||||||||||||||||||||||",
"||||||||||||||||||||||||||||||||||||%****bvQQ''''''''''i8][}zz''()7|||||||||||||||||||||||||||||||||",
"||||||||||||||||||||||||||||||||||||%%****vvbB'''''''''i9ii_)'''(^7|||||||||||||||||||||||||||||||||",
"||||||||||||||||||||||||||||||||||||||%*:**bbb)''''''''i888__'''^(7|||||||||||||||||||||||||||||||||",
"|||||||||||||||||||||||||||||||||||||||%***HJbc''''''''''_)_'''`^Q8|||||||||||||||||||||||||||||||||",
"||||||||||||||||||||||||||||||||||||||||%***Hbcv'''''''''''''''~~W8|||||||||||||||||||||||||||||||||",
"|||||||||||||||||||||||||||||||||||||||||%%*HHvvc''_''''''''''Q~W|||||||||||||||||||||||||||||||||||",
"||||||||||||||||||||||||||||||||||||||||||: -jh44``''_'''''__QQE7|||||||||||||||||||||||||||||||||||",
"||||||||||||||||||||||||||||||||||||||||||| ghhhj34'''''''QQQEE7||||||||||||||||||||||||||||||||||||",
"||||||||||||||||||||||||||||||||||||||||||oo+hhhhh<143``QQQQQ87|||||||||||||||||||||||||||||||||||||",
"||||||||||||||||||||||||||||||||||||||||||  ,hhhhhhh143144419y||||||||||||||||||||||||||||||||||||||",
"|||||||||||||||||||||||||||||||||||||||||| trrghhhhhhh646666.|||||||||||||||||||||||||||||||||||||||",
"|||||||||||||||||||||||||||||||||||||||||  teerrgghhhhhhhhhg..||||||||||||||||||||||||||||||||||||||",
"||||||||||||||||||||||||||||||||||||||||| trrtrrteyhgghhhgy...||||||||||||||||||||||||||||||||||||||",
"||||||||||||||||||||||||||||||||||||||||| tttttttttrttttyytX..||||||||||||||||||||||||||||||||||||||",
"||||||||||||||||||||||||||||||||||||||||  rtttttttttttttttttX.||||||||||||||||||||||||||||||||||||||",
"||||||||||||||||||||||||||||||||||||||||  tttttXXtttttttttttX.||||||||||||||||||||||||||||||||||||||",
"|||||||||||||||||||||||||||||||||||||||| XtttrtXttttttttttttX.||||||||||||||||||||||||||||||||||||||",
"|||||||||||||||||||||||||||||||||||||||| XtttqXXttttttttttttX.||||||||||||||||||||||||||||||||||||||",
"|||||||||||||||||||||||||||||||||||||||| +tk$tXtttttttttttttX.||||||||||||||||||||||||||||||||||||||",
"|||||||||||||||||||||||||||||||||||||||X+/as!!#rttttttttttttX.||||||||||||||||||||||||||||||||||||||",
"|||||||||||||||||||||||||||||||||||||||MV//^/^VNttttttttttttXX||||||||||||||||||||||||||||||||||||||",
"|||||||||||||||||||||||||||||||||||||||NV)_)//VM0ttttttttttr..||||||||||||||||||||||||||||||||||||||",
"|||||||||||||||||||||||||||||||||||||||NV)))//Vm&.tttttttttr.X||||||||||||||||||||||||||||||||||||||",
"|||||||||||||||||||||||||||||||||||||||VNV))/VVmq..XtttttX.X..||||||||||||||||||||||||||||||||||||||",
"||||||||||||||||||||||||||||||||||||||||NNVVVVN||t...X....XrX.||||||||||||||||||||||||||||||||||||||",
"|||||||||||||||||||||||||||||||||||||||||VMMMnx||ttqwtqqetttXX||||||||||||||||||||||||||||||||||||||",
"|||||||||||||||||||||||||||||||||||||||||||||||rtttttttwttwtX.||||||||||||||||||||||||||||||||||||||",
"|||||||||||||||||||||||||||||||||||||||||||||XXttttttttr#ttt@.||||||||||||||||||||||||||||||||||||||",
"|||||||||||||||||||||||||||||||||||||||||||||XXrttttttt..ttt...|||||||||||||||||||||||||||||||||||||",
"|||||||||||||||||||||||||||||||||||||||||||||X.tttttttt..wrtuX.X||||||||||||||||||||||||||||||||||||",
"|||||||||||||||||||||||||||||||||||||||||||||.Xtttttttt..ffdgg..||||||||||||||||||||||||||||||||||||",
"||||||||||||||||||||||||||||||||||||||||||||X.tttttttttq.fsggdXX||||||||||||||||||||||||||||||||||||",
"|||||||||||||||||||||||||||||||||||||||||||||X.ttttttttt...=XXXX||||||||||||||||||||||||||||||||||||",
"|||||||||||||||||||||||||||||||||||||||||||||XX.gggggggg....X.X|||||||||||||||||||||||||||||||||||||",
"||||||||||||||||||||||||||||||||||||||||||||||...ghhhggd.. ..   ||||||||||||||||||||||||||||||||||||",
"||||||||||||||||||||||||||||||||||||||||||||||||.X........     |||||||||||||||||||||||||||||||||||||",
"|||||||||||||||||||||||||||||||||||||||||||||||  XXX.X..X     ||||||||||||||||||||||||||||||||||||||",
"||||||||||||||||||||||||||||||||||||||||||||||                ||||||||||||||||||||||||||||||||||||||",
"|||||||||||||||||||||||||||||||||||||||||||||||             ||||||||||||||||||||||||||||||||||||||||",
"|||||||||||||||||||||||||||||||||||||||||||||||||||||   ||||||||||||||||||||||||||||||||||||||||||||",
"||||||||||||||||||||||||||||||||||||||||||||||||||||||||||||||||||||||||||||||||||||||||||||||||||||"
};
